{
    "asset" : {
        "generator" : "Khronos glTF Blender I/O v1.8.19",
        "version" : "2.0"
    },
    "scene" : 0,
    "scenes" : [
        {
            "name" : "Scene",
            "nodes" : [
                0
            ]
        }
    ],
    "nodes" : [
        {
            "mesh" : 0,
            "name" : "Intro_geo",
            "translation" : [
                2.2242608070373535,
                1.9057307243347168,
                4.474834442138672
            ]
        }
    ],
    "meshes" : [
        {
            "name" : "Cube.012",
            "primitives" : [
                {
                    "attributes" : {
                        "POSITION" : 0,
                        "NORMAL" : 1,
                        "TEXCOORD_0" : 2
                    },
                    "indices" : 3
                }
            ]
        }
    ],
    "accessors" : [
        {
            "bufferView" : 0,
            "componentType" : 5126,
            "count" : 7362,
            "max" : [
                0.15953680872917175,
                0.4243178069591522,
                0.226886585354805
            ],
            "min" : [
                -3.0067811012268066,
                -0.0013898044126108289,
                -0.02610769495368004
            ],
            "type" : "VEC3"
        },
        {
            "bufferView" : 1,
            "componentType" : 5126,
            "count" : 7362,
            "type" : "VEC3"
        },
        {
            "bufferView" : 2,
            "componentType" : 5126,
            "count" : 7362,
            "type" : "VEC2"
        },
        {
            "bufferView" : 3,
            "componentType" : 5123,
            "count" : 11112,
            "type" : "SCALAR"
        }
    ],
    "bufferViews" : [
        {
            "buffer" : 0,
            "byteLength" : 88344,
            "byteOffset" : 0
        },
        {
            "buffer" : 0,
            "byteLength" : 88344,
            "byteOffset" : 88344
        },
        {
            "buffer" : 0,
            "byteLength" : 58896,
            "byteOffset" : 176688
        },
        {
            "buffer" : 0,
            "byteLength" : 22224,
            "byteOffset" : 235584
        }
    ],
    "buffers" : [
        {
            "byteLength" : 257808,
            "uri" : "data:application/octet-stream;base64,"
        }
    ]
}
