{
    "asset" : {
        "generator" : "Khronos glTF Blender I/O v1.8.19",
        "version" : "2.0"
    },
    "scene" : 0,
    "scenes" : [
        {
            "name" : "Scene",
            "nodes" : [
                0
            ]
        }
    ],
    "nodes" : [
        {
            "mesh" : 0,
            "name" : "Cube.030",
            "rotation" : [
                -0.03138216957449913,
                -0.013922679238021374,
                -0.03142640367150307,
                0.9989162683486938
            ],
            "translation" : [
                -4.893377780914307,
                1.9834697246551514,
                4.454914093017578
            ]
        }
    ],
    "meshes" : [
        {
            "name" : "Cube.011",
            "primitives" : [
                {
                    "attributes" : {
                        "POSITION" : 0,
                        "NORMAL" : 1
                    },
                    "indices" : 2
                }
            ]
        }
    ],
    "accessors" : [
        {
            "bufferView" : 0,
            "componentType" : 5126,
            "count" : 7362,
            "max" : [
                1.3290895223617554,
                0.2483176738023758,
                0.2378387451171875
            ],
            "min" : [
                -0.5172758102416992,
                -0.002020752290263772,
                -0.01650223694741726
            ],
            "type" : "VEC3"
        },
        {
            "bufferView" : 1,
            "componentType" : 5126,
            "count" : 7362,
            "type" : "VEC3"
        },
        {
            "bufferView" : 2,
            "componentType" : 5123,
            "count" : 11112,
            "type" : "SCALAR"
        }
    ],
    "bufferViews" : [
        {
            "buffer" : 0,
            "byteLength" : 88344,
            "byteOffset" : 0
        },
        {
            "buffer" : 0,
            "byteLength" : 88344,
            "byteOffset" : 88344
        },
        {
            "buffer" : 0,
            "byteLength" : 22224,
            "byteOffset" : 176688
        }
    ],
    "buffers" : [
        {
            "byteLength" : 198912,
            "uri" : "data:application/octet-stream;base64,"
        }
    ]
}
